<svg viewBox="0 0 800 500" xmlns="http://www.w3.org/2000/svg">
  <rect width="800" height="500" fill="#F0EDE8"/>
  <!-- Grid -->
  <line x1="0" y1="60" x2="800" y2="60" stroke="#09332C" stroke-opacity="0.09" stroke-width="1"/>
  <line x1="0" y1="120" x2="800" y2="120" stroke="#09332C" stroke-opacity="0.09" stroke-width="1"/>
  <line x1="0" y1="180" x2="800" y2="180" stroke="#09332C" stroke-opacity="0.09" stroke-width="1"/>
  <line x1="0" y1="240" x2="800" y2="240" stroke="#09332C" stroke-opacity="0.09" stroke-width="1"/>
  <line x1="0" y1="300" x2="800" y2="300" stroke="#09332C" stroke-opacity="0.09" stroke-width="1"/>
  <line x1="0" y1="360" x2="800" y2="360" stroke="#09332C" stroke-opacity="0.09" stroke-width="1"/>
  <line x1="0" y1="420" x2="800" y2="420" stroke="#09332C" stroke-opacity="0.09" stroke-width="1"/>
  <line x1="0" y1="480" x2="800" y2="480" stroke="#09332C" stroke-opacity="0.09" stroke-width="1"/>
  <line x1="60" y1="0" x2="60" y2="500" stroke="#09332C" stroke-opacity="0.09" stroke-width="1"/>
  <line x1="120" y1="0" x2="120" y2="500" stroke="#09332C" stroke-opacity="0.09" stroke-width="1"/>
  <line x1="180" y1="0" x2="180" y2="500" stroke="#09332C" stroke-opacity="0.09" stroke-width="1"/>
  <line x1="240" y1="0" x2="240" y2="500" stroke="#09332C" stroke-opacity="0.09" stroke-width="1"/>
  <line x1="300" y1="0" x2="300" y2="500" stroke="#09332C" stroke-opacity="0.09" stroke-width="1"/>
  <line x1="360" y1="0" x2="360" y2="500" stroke="#09332C" stroke-opacity="0.09" stroke-width="1"/>
  <line x1="420" y1="0" x2="420" y2="500" stroke="#09332C" stroke-opacity="0.09" stroke-width="1"/>
  <line x1="480" y1="0" x2="480" y2="500" stroke="#09332C" stroke-opacity="0.09" stroke-width="1"/>
  <line x1="540" y1="0" x2="540" y2="500" stroke="#09332C" stroke-opacity="0.09" stroke-width="1"/>
  <line x1="600" y1="0" x2="600" y2="500" stroke="#09332C" stroke-opacity="0.09" stroke-width="1"/>
  <line x1="660" y1="0" x2="660" y2="500" stroke="#09332C" stroke-opacity="0.09" stroke-width="1"/>
  <line x1="720" y1="0" x2="720" y2="500" stroke="#09332C" stroke-opacity="0.09" stroke-width="1"/>
  <line x1="780" y1="0" x2="780" y2="500" stroke="#09332C" stroke-opacity="0.09" stroke-width="1"/>
  <!-- Three clusters: Promoter (left) ↔ Agent (centre) ↔ Artist (right) -->
  <!-- Promoter cluster connections -->
  <polyline points="105,150 105,245 162,245" fill="none" stroke="#09332C" stroke-opacity="0.65" stroke-width="1.5"/>
  <polyline points="230,148 230,245 162,245" fill="none" stroke="#09332C" stroke-opacity="0.65" stroke-width="1.5"/>
  <polyline points="105,355 105,245 162,245" fill="none" stroke="#09332C" stroke-opacity="0.65" stroke-width="1.5"/>
  <!-- Promoter hub → Agent -->
  <polyline points="162,245 400,245" fill="none" stroke="#09332C" stroke-opacity="0.65" stroke-width="1.5"/>
  <!-- Agent → Artist hub -->
  <polyline points="400,245 645,245" fill="none" stroke="#09332C" stroke-opacity="0.65" stroke-width="1.5"/>
  <!-- Artist cluster connections -->
  <polyline points="720,148 720,245 645,245" fill="none" stroke="#09332C" stroke-opacity="0.65" stroke-width="1.5"/>
  <polyline points="580,140 580,245 645,245" fill="none" stroke="#09332C" stroke-opacity="0.65" stroke-width="1.5"/>
  <polyline points="720,355 720,245 645,245" fill="none" stroke="#09332C" stroke-opacity="0.65" stroke-width="1.5"/>
  <!-- Contract node from Agent -->
  <polyline points="400,245 400,118 375,118" fill="none" stroke="#09332C" stroke-opacity="0.65" stroke-width="1.5"/>
  <!-- Nodes: Promoter cluster -->
  <circle cx="162" cy="245" r="46" fill="#09332C"/>
  <circle cx="105" cy="150" r="28" fill="#09332C"/>
  <circle cx="230" cy="148" r="22" fill="#FFA74F"/>
  <circle cx="105" cy="355" r="26" fill="#09332C"/>
  <!-- Agent (primary, orange) -->
  <circle cx="400" cy="245" r="58" fill="#F0531C"/>
  <circle cx="375" cy="118" r="22" fill="#FFA74F"/>
  <!-- Artist cluster -->
  <circle cx="645" cy="245" r="46" fill="#09332C"/>
  <circle cx="720" cy="148" r="26" fill="#FFA74F"/>
  <circle cx="580" cy="140" r="22" fill="#09332C"/>
  <circle cx="720" cy="355" r="24" fill="#09332C"/>
  <circle cx="560" cy="365" r="18" fill="#FFA74F"/>
</svg>
