<svg viewBox="0 0 800 500" xmlns="http://www.w3.org/2000/svg">
  <rect width="800" height="500" fill="#F0EDE8"/>
  <!-- Grid -->
  <line x1="0" y1="60" x2="800" y2="60" stroke="#09332C" stroke-opacity="0.09" stroke-width="1"/>
  <line x1="0" y1="120" x2="800" y2="120" stroke="#09332C" stroke-opacity="0.09" stroke-width="1"/>
  <line x1="0" y1="180" x2="800" y2="180" stroke="#09332C" stroke-opacity="0.09" stroke-width="1"/>
  <line x1="0" y1="240" x2="800" y2="240" stroke="#09332C" stroke-opacity="0.09" stroke-width="1"/>
  <line x1="0" y1="300" x2="800" y2="300" stroke="#09332C" stroke-opacity="0.09" stroke-width="1"/>
  <line x1="0" y1="360" x2="800" y2="360" stroke="#09332C" stroke-opacity="0.09" stroke-width="1"/>
  <line x1="0" y1="420" x2="800" y2="420" stroke="#09332C" stroke-opacity="0.09" stroke-width="1"/>
  <line x1="0" y1="480" x2="800" y2="480" stroke="#09332C" stroke-opacity="0.09" stroke-width="1"/>
  <line x1="60" y1="0" x2="60" y2="500" stroke="#09332C" stroke-opacity="0.09" stroke-width="1"/>
  <line x1="120" y1="0" x2="120" y2="500" stroke="#09332C" stroke-opacity="0.09" stroke-width="1"/>
  <line x1="180" y1="0" x2="180" y2="500" stroke="#09332C" stroke-opacity="0.09" stroke-width="1"/>
  <line x1="240" y1="0" x2="240" y2="500" stroke="#09332C" stroke-opacity="0.09" stroke-width="1"/>
  <line x1="300" y1="0" x2="300" y2="500" stroke="#09332C" stroke-opacity="0.09" stroke-width="1"/>
  <line x1="360" y1="0" x2="360" y2="500" stroke="#09332C" stroke-opacity="0.09" stroke-width="1"/>
  <line x1="420" y1="0" x2="420" y2="500" stroke="#09332C" stroke-opacity="0.09" stroke-width="1"/>
  <line x1="480" y1="0" x2="480" y2="500" stroke="#09332C" stroke-opacity="0.09" stroke-width="1"/>
  <line x1="540" y1="0" x2="540" y2="500" stroke="#09332C" stroke-opacity="0.09" stroke-width="1"/>
  <line x1="600" y1="0" x2="600" y2="500" stroke="#09332C" stroke-opacity="0.09" stroke-width="1"/>
  <line x1="660" y1="0" x2="660" y2="500" stroke="#09332C" stroke-opacity="0.09" stroke-width="1"/>
  <line x1="720" y1="0" x2="720" y2="500" stroke="#09332C" stroke-opacity="0.09" stroke-width="1"/>
  <line x1="780" y1="0" x2="780" y2="500" stroke="#09332C" stroke-opacity="0.09" stroke-width="1"/>
  <!-- Menu items → Menu hub → Cart → Order → Delivery -->
  <!-- Item A → Menu -->
  <polyline points="130,100 130,162 280,162" fill="none" stroke="#09332C" stroke-opacity="0.65" stroke-width="1.5"/>
  <!-- Item B → Menu -->
  <polyline points="165,265 165,162 280,162" fill="none" stroke="#09332C" stroke-opacity="0.65" stroke-width="1.5"/>
  <!-- Item C → Menu -->
  <polyline points="395,98 280,98 280,162" fill="none" stroke="#09332C" stroke-opacity="0.65" stroke-width="1.5"/>
  <!-- Item D → Cart -->
  <polyline points="450,252 500,252 500,172" fill="none" stroke="#09332C" stroke-opacity="0.65" stroke-width="1.5"/>
  <!-- Menu → Cart -->
  <polyline points="280,162 500,162 500,172" fill="none" stroke="#09332C" stroke-opacity="0.65" stroke-width="1.5"/>
  <!-- Cart → Order -->
  <polyline points="500,172 600,172 600,332" fill="none" stroke="#09332C" stroke-opacity="0.65" stroke-width="1.5"/>
  <!-- Order → Delivery -->
  <polyline points="600,332 600,432 710,432" fill="none" stroke="#09332C" stroke-opacity="0.65" stroke-width="1.5"/>
  <!-- User → Cart -->
  <polyline points="112,382 112,172 500,172" fill="none" stroke="#09332C" stroke-opacity="0.65" stroke-width="1.5"/>
  <!-- Nodes -->
  <circle cx="280" cy="162" r="50" fill="#F0531C"/>
  <circle cx="130" cy="100" r="30" fill="#FFA74F"/>
  <circle cx="165" cy="265" r="26" fill="#09332C"/>
  <circle cx="395" cy="98" r="28" fill="#09332C"/>
  <circle cx="450" cy="252" r="22" fill="#FFA74F"/>
  <circle cx="500" cy="172" r="38" fill="#09332C"/>
  <circle cx="112" cy="382" r="32" fill="#09332C"/>
  <circle cx="600" cy="332" r="46" fill="#F0531C"/>
  <circle cx="710" cy="432" r="26" fill="#09332C"/>
  <circle cx="698" cy="198" r="20" fill="#FFA74F"/>
  <circle cx="360" cy="395" r="14" fill="#09332C"/>
</svg>
