<svg viewBox="0 0 800 500" xmlns="http://www.w3.org/2000/svg">
  <rect width="800" height="500" fill="#F0EDE8"/>
  <!-- Grid -->
  <line x1="0" y1="60" x2="800" y2="60" stroke="#09332C" stroke-opacity="0.09" stroke-width="1"/>
  <line x1="0" y1="120" x2="800" y2="120" stroke="#09332C" stroke-opacity="0.09" stroke-width="1"/>
  <line x1="0" y1="180" x2="800" y2="180" stroke="#09332C" stroke-opacity="0.09" stroke-width="1"/>
  <line x1="0" y1="240" x2="800" y2="240" stroke="#09332C" stroke-opacity="0.09" stroke-width="1"/>
  <line x1="0" y1="300" x2="800" y2="300" stroke="#09332C" stroke-opacity="0.09" stroke-width="1"/>
  <line x1="0" y1="360" x2="800" y2="360" stroke="#09332C" stroke-opacity="0.09" stroke-width="1"/>
  <line x1="0" y1="420" x2="800" y2="420" stroke="#09332C" stroke-opacity="0.09" stroke-width="1"/>
  <line x1="0" y1="480" x2="800" y2="480" stroke="#09332C" stroke-opacity="0.09" stroke-width="1"/>
  <line x1="60" y1="0" x2="60" y2="500" stroke="#09332C" stroke-opacity="0.09" stroke-width="1"/>
  <line x1="120" y1="0" x2="120" y2="500" stroke="#09332C" stroke-opacity="0.09" stroke-width="1"/>
  <line x1="180" y1="0" x2="180" y2="500" stroke="#09332C" stroke-opacity="0.09" stroke-width="1"/>
  <line x1="240" y1="0" x2="240" y2="500" stroke="#09332C" stroke-opacity="0.09" stroke-width="1"/>
  <line x1="300" y1="0" x2="300" y2="500" stroke="#09332C" stroke-opacity="0.09" stroke-width="1"/>
  <line x1="360" y1="0" x2="360" y2="500" stroke="#09332C" stroke-opacity="0.09" stroke-width="1"/>
  <line x1="420" y1="0" x2="420" y2="500" stroke="#09332C" stroke-opacity="0.09" stroke-width="1"/>
  <line x1="480" y1="0" x2="480" y2="500" stroke="#09332C" stroke-opacity="0.09" stroke-width="1"/>
  <line x1="540" y1="0" x2="540" y2="500" stroke="#09332C" stroke-opacity="0.09" stroke-width="1"/>
  <line x1="600" y1="0" x2="600" y2="500" stroke="#09332C" stroke-opacity="0.09" stroke-width="1"/>
  <line x1="660" y1="0" x2="660" y2="500" stroke="#09332C" stroke-opacity="0.09" stroke-width="1"/>
  <line x1="720" y1="0" x2="720" y2="500" stroke="#09332C" stroke-opacity="0.09" stroke-width="1"/>
  <line x1="780" y1="0" x2="780" y2="500" stroke="#09332C" stroke-opacity="0.09" stroke-width="1"/>
  <!-- Connections: services → monitor hub, center-to-center right-angle -->
  <!-- API → Monitor -->
  <polyline points="155,110 155,265 400,265" fill="none" stroke="#09332C" stroke-opacity="0.65" stroke-width="1.5"/>
  <!-- DB → Monitor -->
  <polyline points="320,90 320,265 400,265" fill="none" stroke="#09332C" stroke-opacity="0.65" stroke-width="1.5"/>
  <!-- Cache → Monitor -->
  <polyline points="490,115 490,265 400,265" fill="none" stroke="#09332C" stroke-opacity="0.65" stroke-width="1.5"/>
  <!-- Queue → Monitor -->
  <polyline points="650,100 650,265 456,265" fill="none" stroke="#09332C" stroke-opacity="0.65" stroke-width="1.5"/>
  <!-- Monitor → Alerts -->
  <polyline points="400,265 185,265 185,405" fill="none" stroke="#09332C" stroke-opacity="0.65" stroke-width="1.5"/>
  <!-- Monitor → Dashboard -->
  <polyline points="400,265 590,265 590,400" fill="none" stroke="#09332C" stroke-opacity="0.65" stroke-width="1.5"/>
  <!-- Monitor → Logs -->
  <polyline points="400,265 400,400 718,400" fill="none" stroke="#09332C" stroke-opacity="0.65" stroke-width="1.5"/>
  <!-- Nodes: Services top row -->
  <circle cx="155" cy="110" r="36" fill="#F0531C"/>
  <circle cx="320" cy="90" r="44" fill="#09332C"/>
  <circle cx="490" cy="115" r="30" fill="#09332C"/>
  <circle cx="650" cy="100" r="28" fill="#FFA74F"/>
  <!-- Monitor hub (center) -->
  <circle cx="400" cy="265" r="56" fill="#09332C"/>
  <!-- Output nodes bottom -->
  <circle cx="185" cy="405" r="36" fill="#F0531C"/>
  <circle cx="590" cy="400" r="42" fill="#09332C"/>
  <circle cx="718" cy="400" r="22" fill="#FFA74F"/>
  <!-- Accent nodes -->
  <circle cx="88" cy="375" r="14" fill="#FFA74F"/>
  <circle cx="740" cy="170" r="16" fill="#09332C"/>
</svg>
