<svg viewBox="0 0 800 500" xmlns="http://www.w3.org/2000/svg">
  <rect width="800" height="500" fill="#F0EDE8"/>
  <!-- Grid -->
  <line x1="0" y1="60" x2="800" y2="60" stroke="#09332C" stroke-opacity="0.09" stroke-width="1"/>
  <line x1="0" y1="120" x2="800" y2="120" stroke="#09332C" stroke-opacity="0.09" stroke-width="1"/>
  <line x1="0" y1="180" x2="800" y2="180" stroke="#09332C" stroke-opacity="0.09" stroke-width="1"/>
  <line x1="0" y1="240" x2="800" y2="240" stroke="#09332C" stroke-opacity="0.09" stroke-width="1"/>
  <line x1="0" y1="300" x2="800" y2="300" stroke="#09332C" stroke-opacity="0.09" stroke-width="1"/>
  <line x1="0" y1="360" x2="800" y2="360" stroke="#09332C" stroke-opacity="0.09" stroke-width="1"/>
  <line x1="0" y1="420" x2="800" y2="420" stroke="#09332C" stroke-opacity="0.09" stroke-width="1"/>
  <line x1="0" y1="480" x2="800" y2="480" stroke="#09332C" stroke-opacity="0.09" stroke-width="1"/>
  <line x1="60" y1="0" x2="60" y2="500" stroke="#09332C" stroke-opacity="0.09" stroke-width="1"/>
  <line x1="120" y1="0" x2="120" y2="500" stroke="#09332C" stroke-opacity="0.09" stroke-width="1"/>
  <line x1="180" y1="0" x2="180" y2="500" stroke="#09332C" stroke-opacity="0.09" stroke-width="1"/>
  <line x1="240" y1="0" x2="240" y2="500" stroke="#09332C" stroke-opacity="0.09" stroke-width="1"/>
  <line x1="300" y1="0" x2="300" y2="500" stroke="#09332C" stroke-opacity="0.09" stroke-width="1"/>
  <line x1="360" y1="0" x2="360" y2="500" stroke="#09332C" stroke-opacity="0.09" stroke-width="1"/>
  <line x1="420" y1="0" x2="420" y2="500" stroke="#09332C" stroke-opacity="0.09" stroke-width="1"/>
  <line x1="480" y1="0" x2="480" y2="500" stroke="#09332C" stroke-opacity="0.09" stroke-width="1"/>
  <line x1="540" y1="0" x2="540" y2="500" stroke="#09332C" stroke-opacity="0.09" stroke-width="1"/>
  <line x1="600" y1="0" x2="600" y2="500" stroke="#09332C" stroke-opacity="0.09" stroke-width="1"/>
  <line x1="660" y1="0" x2="660" y2="500" stroke="#09332C" stroke-opacity="0.09" stroke-width="1"/>
  <line x1="720" y1="0" x2="720" y2="500" stroke="#09332C" stroke-opacity="0.09" stroke-width="1"/>
  <line x1="780" y1="0" x2="780" y2="500" stroke="#09332C" stroke-opacity="0.09" stroke-width="1"/>
  <!-- Connections: center-to-center, right-angle -->
  <polyline points="155,175 420,175 420,215" fill="none" stroke="#09332C" stroke-opacity="0.65" stroke-width="1.5"/>
  <polyline points="275,95 420,95 420,175" fill="none" stroke="#09332C" stroke-opacity="0.65" stroke-width="1.5"/>
  <polyline points="185,305 185,215 420,215" fill="none" stroke="#09332C" stroke-opacity="0.65" stroke-width="1.5"/>
  <polyline points="420,215 420,145 565,145" fill="none" stroke="#09332C" stroke-opacity="0.65" stroke-width="1.5"/>
  <polyline points="565,145 655,145 655,285" fill="none" stroke="#09332C" stroke-opacity="0.65" stroke-width="1.5"/>
  <polyline points="655,285 705,285 705,400" fill="none" stroke="#09332C" stroke-opacity="0.65" stroke-width="1.5"/>
  <polyline points="420,215 420,390 345,390" fill="none" stroke="#09332C" stroke-opacity="0.65" stroke-width="1.5"/>
  <!-- Nodes -->
  <circle cx="155" cy="175" r="44" fill="#09332C"/>
  <circle cx="275" cy="95" r="28" fill="#09332C"/>
  <circle cx="185" cy="305" r="22" fill="#FFA74F"/>
  <circle cx="100" cy="400" r="16" fill="#FFA74F"/>
  <circle cx="420" cy="215" r="54" fill="#F0531C"/>
  <circle cx="345" cy="390" r="20" fill="#FFA74F"/>
  <circle cx="565" cy="145" r="42" fill="#09332C"/>
  <circle cx="655" cy="285" r="32" fill="#F0531C"/>
  <circle cx="705" cy="400" r="22" fill="#09332C"/>
  <circle cx="510" cy="390" r="14" fill="#09332C"/>
  <circle cx="730" cy="195" r="18" fill="#FFA74F"/>
</svg>
